<svg xmlns="http://www.w3.org/2000/svg" width="24" height="24" viewBox="0 0 24 24" fill="none">
  <g clip-path="url(#clip0_33_468)">
    <path d="M4.57126 14.184C13.0649 14.184 13.1993 5.46481 13.1993 5.46481C13.1993 5.46481 13.3361 14.184 21.8273 14.184C13.3337 14.184 13.1993 22.9032 13.1993 22.9032C13.1993 22.9032 13.0625 14.184 4.57126 14.184ZM17.2529 5.64721C20.8697 5.64721 20.9297 1.93201 20.9297 1.93201C20.9297 1.93201 20.9873 5.64721 24.6065 5.64721C20.9897 5.64721 20.9297 9.36241 20.9297 9.36241C20.9297 9.36241 20.8721 5.64721 17.2529 5.64721ZM2.16406 6.74641C4.53286 6.74641 4.57126 4.31521 4.57126 4.31521C4.57126 4.31521 4.60966 6.74641 6.97846 6.74641C4.60966 6.74641 4.57126 9.17761 4.57126 9.17761C4.57126 9.17761 4.53286 6.74641 2.16406 6.74641Z" fill="#F9C442"/>
  </g>
  <defs>
    <clipPath id="clip0_33_468">
      <rect width="24" height="24" fill="white"/>
    </clipPath>
  </defs>
</svg>